<svg width="32" height="32" viewBox="0 0 32 32" fill="none" xmlns="http://www.w3.org/2000/svg">
<circle cx="16" cy="16" r="16" fill="#CBB6AF"/>
<path fill-rule="evenodd" clip-rule="evenodd" d="M20 13C20 14.0609 19.5786 15.0783 18.8284 15.8284C18.0783 16.5786 17.0609 17 16 17C14.9391 17 13.9217 16.5786 13.1716 15.8284C12.4214 15.0783 12 14.0609 12 13C12 11.9391 12.4214 10.9217 13.1716 10.1716C13.9217 9.42143 14.9391 9 16 9C17.0609 9 18.0783 9.42143 18.8284 10.1716C19.5786 10.9217 20 11.9391 20 13ZM18 13C18 13.5304 17.7893 14.0391 17.4142 14.4142C17.0391 14.7893 16.5304 15 16 15C15.4696 15 14.9609 14.7893 14.5858 14.4142C14.2107 14.0391 14 13.5304 14 13C14 12.4696 14.2107 11.9609 14.5858 11.5858C14.9609 11.2107 15.4696 11 16 11C16.5304 11 17.0391 11.2107 17.4142 11.5858C17.7893 11.9609 18 12.4696 18 13Z" fill="#F3EEEC"/>
<path fill-rule="evenodd" clip-rule="evenodd" d="M16 5C9.925 5 5 9.925 5 16C5 22.075 9.925 27 16 27C22.075 27 27 22.075 27 16C27 9.925 22.075 5 16 5ZM7 16C7 18.09 7.713 20.014 8.908 21.542C9.74723 20.4399 10.8299 19.5467 12.0714 18.9323C13.313 18.3179 14.6797 17.9988 16.065 18C17.4323 17.9987 18.7819 18.3095 20.0109 18.9088C21.2399 19.508 22.316 20.3799 23.157 21.458C24.0234 20.3216 24.6068 18.9952 24.8589 17.5886C25.111 16.182 25.0244 14.7355 24.6065 13.369C24.1886 12.0024 23.4512 10.755 22.4555 9.73004C21.4598 8.70503 20.2343 7.93186 18.8804 7.47451C17.5265 7.01716 16.0832 6.88877 14.6699 7.09997C13.2565 7.31117 11.9138 7.85589 10.7528 8.68905C9.59175 9.52222 8.64581 10.6199 7.99323 11.8912C7.34065 13.1625 7.00018 14.571 7 16ZM16 25C13.9339 25.0031 11.9303 24.2923 10.328 22.988C10.9729 22.0647 11.8313 21.3109 12.8302 20.7907C13.829 20.2705 14.9388 19.9992 16.065 20C17.1772 19.9991 18.2735 20.2636 19.2629 20.7714C20.2524 21.2793 21.1064 22.0159 21.754 22.92C20.1393 24.2667 18.1026 25.0029 16 25Z" fill="#F3EEEC"/>
</svg>
