<svg width="180" height="30" viewBox="0 0 180 30" fill="none" xmlns="http://www.w3.org/2000/svg">
<path d="M24.9175 12.4149L23.7931 17.662H28.1203V21.9211H22.8732L21.6466 27.7133H17.115L18.3416 21.9211H12.1405L10.9139 27.7133H6.41634L7.64294 21.9211H2.49805V17.662H8.56289L9.68727 12.4149H4.57645V8.15591H10.6072L11.7997 2.49994H16.2973L15.1047 8.15591H21.3059L22.4984 2.49994H27.03L25.8375 8.15591H30.1987V12.4149H24.9175ZM20.3859 12.4149H14.1848L13.0604 17.662H19.2615L20.3859 12.4149Z" fill="#4A3830"/>
<path d="M48.5295 23.6928H59.2282V27.7133H43.0098V24.0335L53.6403 7.95148H43.0098V3.93097H59.2282V7.61076L48.5295 23.6928Z" fill="#4A3830"/>
<path d="M75.0094 27.9518C72.7834 27.9518 70.739 27.4294 68.8764 26.3845C67.0138 25.3396 65.5374 23.8972 64.447 22.0573C63.3567 20.1947 62.8116 18.0936 62.8116 15.754C62.8116 13.4371 63.3567 11.3587 64.447 9.5188C65.5374 7.65619 67.0138 6.20244 68.8764 5.15756C70.739 4.11269 72.7834 3.59025 75.0094 3.59025C77.2582 3.59025 79.3025 4.11269 81.1424 5.15756C83.005 6.20244 84.4701 7.65619 85.5377 9.5188C86.628 11.3587 87.1732 13.4371 87.1732 15.754C87.1732 18.0936 86.628 20.1947 85.5377 22.0573C84.4701 23.8972 83.005 25.3396 81.1424 26.3845C79.2798 27.4294 77.2355 27.9518 75.0094 27.9518ZM75.0094 23.6928C76.4404 23.6928 77.7011 23.3748 78.7914 22.7388C79.8817 22.0801 80.7335 21.1488 81.3468 19.9449C81.9601 18.741 82.2668 17.344 82.2668 15.754C82.2668 14.164 81.9601 12.7784 81.3468 11.5972C80.7335 10.3933 79.8817 9.47337 78.7914 8.83736C77.7011 8.20134 76.4404 7.88334 75.0094 7.88334C73.5784 7.88334 72.3063 8.20134 71.1933 8.83736C70.103 9.47337 69.2512 10.3933 68.6379 11.5972C68.0246 12.7784 67.718 14.164 67.718 15.754C67.718 17.344 68.0246 18.741 68.6379 19.9449C69.2512 21.1488 70.103 22.0801 71.1933 22.7388C72.3063 23.3748 73.5784 23.6928 75.0094 23.6928Z" fill="#4A3830"/>
<path d="M104.896 15.5155C106.236 15.7654 107.338 16.4354 108.201 17.5257C109.064 18.6161 109.496 19.8654 109.496 21.2737C109.496 22.5457 109.178 23.6701 108.542 24.6468C107.928 25.6008 107.031 26.3504 105.85 26.8956C104.669 27.4407 103.272 27.7133 101.659 27.7133H91.4034V3.93097H101.216C102.829 3.93097 104.215 4.19219 105.373 4.71463C106.554 5.23707 107.44 5.96394 108.031 6.89524C108.644 7.82655 108.951 8.88278 108.951 10.064C108.951 11.4496 108.576 12.608 107.826 13.5393C107.099 14.4706 106.123 15.1293 104.896 15.5155ZM96.1735 13.7437H100.535C101.67 13.7437 102.545 13.4939 103.158 12.9942C103.772 12.4717 104.078 11.7335 104.078 10.7795C104.078 9.82545 103.772 9.08722 103.158 8.56478C102.545 8.04234 101.67 7.78112 100.535 7.78112H96.1735V13.7437ZM100.978 23.8291C102.136 23.8291 103.033 23.5565 103.669 23.0114C104.328 22.4662 104.657 21.6939 104.657 20.6945C104.657 19.6723 104.317 18.8773 103.635 18.3094C102.954 17.7188 102.034 17.4235 100.875 17.4235H96.1735V23.8291H100.978Z" fill="#4A3830"/>
<path d="M128.562 23.1817H119.09L117.522 27.7133H112.514L121.066 3.89689H126.62L135.172 27.7133H130.129L128.562 23.1817ZM127.267 19.3656L123.826 9.41658L120.384 19.3656H127.267Z" fill="#4A3830"/>
<path d="M153.633 23.1817H144.161L142.593 27.7133H137.585L146.137 3.89689H151.691L160.243 27.7133H155.2L153.633 23.1817ZM152.338 19.3656L148.897 9.41658L145.455 19.3656H152.338Z" fill="#4A3830"/>
<path d="M178.664 4.77727L173.878 20.5323L169.994 19.4917L173.694 3.44567L178.664 4.77727ZM169.971 27.7396C169.137 27.5162 168.514 27.0787 168.1 26.4271C167.715 25.7594 167.625 25.0416 167.831 24.2737C168.037 23.5058 168.47 22.94 169.132 22.5765C169.822 22.1969 170.584 22.1188 171.417 22.3422C172.229 22.5597 172.828 23.0023 173.213 23.67C173.605 24.3157 173.697 25.0226 173.492 25.7905C173.286 26.5584 172.849 27.1351 172.181 27.5206C171.52 27.8841 170.783 27.9572 169.971 27.7396Z" fill="#4A3830"/>
</svg>
