<svg width="12" height="12" viewBox="0 0 12 12" fill="none" xmlns="http://www.w3.org/2000/svg">
<path fill-rule="evenodd" clip-rule="evenodd" d="M6.00001 9.53617L2.73751 11.2177C2.71281 11.2304 2.68507 11.236 2.65737 11.2339C2.62967 11.2318 2.6031 11.222 2.58062 11.2057C2.55815 11.1893 2.54065 11.1671 2.53008 11.1414C2.51951 11.1157 2.51628 11.0876 2.52076 11.0602L3.11326 7.43767L0.504757 4.85617C0.484628 4.83686 0.470348 4.81226 0.463551 4.78521C0.456754 4.75815 0.457716 4.72973 0.466326 4.70319C0.474936 4.67666 0.490846 4.65308 0.512234 4.63517C0.533622 4.61726 0.559622 4.60574 0.587257 4.60192L4.21501 4.04467L5.86501 0.767172C5.87745 0.742211 5.8966 0.721213 5.92031 0.706535C5.94403 0.691857 5.97137 0.684082 5.99926 0.684082C6.02715 0.684082 6.05448 0.691857 6.0782 0.706535C6.10191 0.721213 6.12107 0.742211 6.13351 0.767172L7.78351 4.04467L11.4113 4.60192C11.4387 4.60601 11.4645 4.61767 11.4857 4.63562C11.5069 4.65356 11.5227 4.67707 11.5313 4.70349C11.5399 4.72991 11.5409 4.7582 11.5343 4.78517C11.5276 4.81215 11.5136 4.83673 11.4938 4.85617L8.88751 7.43842L9.47851 11.0609C9.48282 11.0883 9.47947 11.1163 9.46883 11.1419C9.45819 11.1675 9.44068 11.1896 9.41823 11.2058C9.39579 11.222 9.36929 11.2317 9.34167 11.2338C9.31405 11.2359 9.28639 11.2303 9.26176 11.2177L6.00001 9.53617Z" fill="#F6BD2B"/>
</svg>
